HIERARCHY
ROOT Hips__w4v
{
  OFFSET -3.07492 48.3592 -0.6774
  CHANNELS 6 Xposition Yposition Zposition Zrotation Xrotation Yrotation
  JOINT Bip01_Pelvis__bBo
  {
    OFFSET 0 0 0
    CHANNELS 3 Zrotation Xrotation Yrotation
    JOINT BN_Tail_01__8Ri
    {
      OFFSET -5.32158 3.2873 -2.02656e-005
      CHANNELS 3 Zrotation Xrotation Yrotation
      JOINT BN_Tail_R_01__vdN
      {
        OFFSET 8.63232 1.35571 1.76378
        CHANNELS 3 Zrotation Xrotation Yrotation
        End Site
        {
          OFFSET 0 0 0
        }
      }
      JOINT BN_Tail_L_01__Qcw
      {
        OFFSET 8.63232 1.3557 -1.76371
        CHANNELS 3 Zrotation Xrotation Yrotation
        End Site
        {
          OFFSET 0 0 0
        }
      }
    }
    JOINT Bip01_Spine__UlJ
    {
      OFFSET 4.114 0.726341 -0.578045
      CHANNELS 3 Zrotation Xrotation Yrotation
      JOINT BN_Forearm_L_01__tJN
      {
        OFFSET 0.897232 2.54416 6.26078
        CHANNELS 3 Zrotation Xrotation Yrotation
        JOINT BN_Forearm_L_02__JiJ
        {
          OFFSET 10.741 0 0
          CHANNELS 3 Zrotation Xrotation Yrotation
          JOINT BN_Forearm_L_03__ror
          {
            OFFSET 16.0877 0 0
            CHANNELS 3 Zrotation Xrotation Yrotation
            JOINT BN_Forearm_L_04__il9
            {
              OFFSET 12.4668 0 0
              CHANNELS 3 Zrotation Xrotation Yrotation
              End Site
              {
                OFFSET 0 0 0
              }
            }
          }
        }
      }
      JOINT BN_Forearm_R_01__8dz
      {
        OFFSET 0.897229 2.54417 -6.26077
        CHANNELS 3 Zrotation Xrotation Yrotation
        JOINT BN_Forearm_R_02__5Px
        {
          OFFSET 10.741 0 0
          CHANNELS 3 Zrotation Xrotation Yrotation
          JOINT BN_Forearm_R_03__nhh
          {
            OFFSET 16.0877 0 0
            CHANNELS 3 Zrotation Xrotation Yrotation
            JOINT BN_Forearm_R_04__dxX
            {
              OFFSET 12.4668 0 0
              CHANNELS 3 Zrotation Xrotation Yrotation
              End Site
              {
                OFFSET 0 0 0
              }
            }
          }
        }
      }
      JOINT Bone02__old
      {
        OFFSET 3.20421 -2.7892 0
        CHANNELS 3 Zrotation Xrotation Yrotation
        JOINT Bone03__f96
        {
          OFFSET 8.22748 0 0
          CHANNELS 3 Zrotation Xrotation Yrotation
          End Site
          {
            OFFSET 0 0 0
          }
        }
      }
      JOINT Bip01_R_Thigh__qPK
      {
        OFFSET -4.35244 0.122402 -1.69166
        CHANNELS 3 Zrotation Xrotation Yrotation
        JOINT Bip01_R_Calf__swj
        {
          OFFSET 12.5918 0 0
          CHANNELS 3 Zrotation Xrotation Yrotation
          JOINT Bip01_R_HorseLink__kyi
          {
            OFFSET 15.7835 0 0
            CHANNELS 3 Zrotation Xrotation Yrotation
            JOINT Bip01_R_Foot__bwL
            {
              OFFSET 21.6004 0 0
              CHANNELS 3 Zrotation Xrotation Yrotation
              JOINT Bip01_R_Toe2__w2t
              {
                OFFSET 1.21026 0.746123 -0.418668
                CHANNELS 3 Zrotation Xrotation Yrotation
                End Site
                {
                  OFFSET 0 0 0
                }
              }
              JOINT Bip01_R_Toe1__eMA
              {
                OFFSET 1.6342 1.57162 0.731098
                CHANNELS 3 Zrotation Xrotation Yrotation
                End Site
                {
                  OFFSET 0 0 0
                }
              }
              JOINT Bip01_R_Toe0__vYg
              {
                OFFSET 1.23943 0.690069 2.0466
                CHANNELS 3 Zrotation Xrotation Yrotation
                End Site
                {
                  OFFSET 0 0 0
                }
              }
            }
          }
        }
      }
      JOINT Bip01_L_Thigh__UfG
      {
        OFFSET -3.85693 0.0539398 3.62084
        CHANNELS 3 Zrotation Xrotation Yrotation
        JOINT Bip01_L_Calf__IXD
        {
          OFFSET 12.5918 0 0
          CHANNELS 3 Zrotation Xrotation Yrotation
          JOINT Bip01_L_HorseLink__Idl
          {
            OFFSET 15.7835 0 0
            CHANNELS 3 Zrotation Xrotation Yrotation
            JOINT Bip01_L_Foot__ouF
            {
              OFFSET 21.6004 0 0
              CHANNELS 3 Zrotation Xrotation Yrotation
              JOINT Bip01_L_Toe2__w7U
              {
                OFFSET 1.21026 0.746124 0.418668
                CHANNELS 3 Zrotation Xrotation Yrotation
                JOINT Bip01_L_Toe21__Dqe
                {
                  OFFSET 3.68066 0 0
                  CHANNELS 3 Zrotation Xrotation Yrotation
                  End Site
                  {
                    OFFSET 0 0 0
                  }
                }
              }
              JOINT Bip01_L_Toe1__zUA
              {
                OFFSET 1.6342 1.57162 -0.731098
                CHANNELS 3 Zrotation Xrotation Yrotation
                JOINT Bip01_L_Toe11__DhW
                {
                  OFFSET 4.85137 0 0
                  CHANNELS 3 Zrotation Xrotation Yrotation
                  End Site
                  {
                    OFFSET 0 0 0
                  }
                }
              }
              JOINT Bip01_L_Toe0__8VZ
              {
                OFFSET 1.23943 0.690077 -2.0466
                CHANNELS 3 Zrotation Xrotation Yrotation
                JOINT Bip01_L_Toe01__haX
                {
                  OFFSET 4.00763 0 0
                  CHANNELS 3 Zrotation Xrotation Yrotation
                  End Site
                  {
                    OFFSET 0 0 0
                  }
                }
              }
            }
          }
        }
      }
      JOINT Bip01_Spine1__OBc
      {
        OFFSET 4.21346 -0.00363159 0
        CHANNELS 3 Zrotation Xrotation Yrotation
        JOINT Bip01_Neck__OQw
        {
          OFFSET 3.27705 3.81532 1.0252e-005
          CHANNELS 3 Zrotation Xrotation Yrotation
          JOINT Bip01_Neck1__6Ap
          {
            OFFSET 6.67094 -0.00200272 8.39234e-005
            CHANNELS 3 Zrotation Xrotation Yrotation
            JOINT Bip01_Neck2__9K1
            {
              OFFSET 6.49402 -0.00444794 2.52723e-005
              CHANNELS 3 Zrotation Xrotation Yrotation
              JOINT Bip01_Neck3__A5z
              {
                OFFSET 6.7845 -0.00572586 2.76565e-005
                CHANNELS 3 Zrotation Xrotation Yrotation
                JOINT Bip01_Neck4__PB6
                {
                  OFFSET 7.26459 -0.00499726 9.39667e-005
                  CHANNELS 3 Zrotation Xrotation Yrotation
                  JOINT Bip01_Head__N3g
                  {
                    OFFSET 6.98685 0 0
                    CHANNELS 3 Zrotation Xrotation Yrotation
                    JOINT BN_Mouth_01__VD1
                    {
                      OFFSET 2.83017 4.35701 3.04554e-005
                      CHANNELS 3 Zrotation Xrotation Yrotation
                      End Site
                      {
                        OFFSET 0 0 0
                      }
                    }
                  }
                }
              }
            }
          }
        }
      }
    }
  }
}
MOTION
Frames:	4
Frame Time:	0.0333333
-3.07492 49.5928 0.311965 -90.6149 -85.5073 -7.2626e-005 -89.9997 9.96268 -97.9999 -12.0011 0.00146484 179.985 62.8068 58.6075 -55.1418 -124.537 61.938 131.241 11.3237 -0.735238 -5.32867 149.966 -19.7772 -14.0205 -174.41 -19.4898 -0.424486 151.928 -7.21405 -4.29608 25.6435 -0.303917 11.7611 -34.498 -18.6663 164.509 166.06 19.3569 2.35638 -146.554 6.78232 -4.95135 -26.4428 0.136611 5.4775 30.2035 0.000106812 180 31.3033 -1.2015e-005 -5.27233 -103.208 -15.1542 -179.337 -8.62298 8.41167e-007 -1.73962e-005 17.6489 -1.35572e-005 1.48755e-005 -16.0719 -6.0943 -1.25189 80.2873 -3.72642 37.0389 88.5612 -1.70251e-005 -1.12769e-005 82.014 -2.17921 -30.4006 -98.4549 -2.27178 -174.639 -54.2913 -2.2326e-006 1.40491e-005 34.8551 -1.52469e-006 -1.97245e-005 0.554296 12.1133 -1.07249 67.6761 16.0826 -34.0056 1.65945e-007 9.74869e-006 -4.96294e-009 69.9358 6.41403e-006 -8.0306e-006 9.23523 2.00328e-006 9.75646e-006 66.0784 -9.77022 29.006 8.11027 8.28915e-006 2.07743e-006 8.06559 -0.0570073 10.1137 -23.0034 -0.0128025 -2.0968 -67.2534 -0.941318 1.39102 -34.5327 -0.285445 -0.131603 8.1161 -0.262631 2.67821 26.0076 -0.967975 -0.495237 45.5331 2.1801 -0.858981 -68.0285 0.000137329 -180
-3.07492 49.4737 0.380239 -90.8135 -85.4698 0.00690577 -89.9026 9.92523 -97.7993 -12.5247 -0.00500483 -179.736 63.5336 58.1842 -56.0999 -125.447 62.2079 131.772 11.2728 -0.625618 -5.45524 149.889 -19.7591 -14.0465 -174.351 -19.4902 -0.405007 151.902 -7.21199 -4.29687 25.7746 -0.276015 11.7615 -34.4794 -18.6711 164.515 165.927 19.3516 2.40059 -146.517 6.75808 -5.13916 -26.3524 0.144257 5.06094 30.0725 -0.00675964 179.988 30.9181 2.19106e-006 -5.72841 -107.934 -15.0454 179.254 -16.8259 3.31661e-006 -1.70947e-005 20.1253 -1.40136e-005 1.24178e-005 -13.257 -6.24174 -1.14785 78.8727 -3.72424 37.145 87.116 0.02483 0.00124001 80.5861 -2.12187 -30.5735 -100.154 -2.40595 -174.957 -59.844 -4.50584e-006 1.43021e-005 38.8664 1.42441e-005 1.70319e-006 -3.02211 12.2571 -0.360503 66.423 16.8879 -33.65 1.65945e-007 9.74869e-006 -4.96293e-009 68.489 1.24992e-005 -5.52734e-006 9.23523 1.98925e-006 9.75261e-006 64.7918 -10.469 28.7792 8.11027 8.28816e-006 1.53644e-006 8.03408 -0.0374437 10.072 -22.7644 -0.0883497 -2.56419 -67.6622 -0.956894 1.24991 -34.099 -0.310533 -0.204502 8.22492 -0.259239 2.69763 25.9277 -0.997172 -0.610097 45.0542 2.15013 -0.613407 -68.0354 0.000137329 -180
-3.07492 49.3192 0.439638 -91.0749 -85.4985 -0.0435367 -89.7436 9.82222 -97.589 -13.1501 -0.0188895 -179.441 64.3444 57.827 -57.3622 -126.496 62.4658 132.208 11.1763 -0.541995 -5.467 149.759 -19.7284 -14.0905 -174.191 -19.4912 -0.351631 151.83 -7.20626 -4.29929 25.8972 -0.25003 11.7619 -34.4285 -18.6845 164.532 165.765 19.3452 2.45415 -146.45 6.73119 -5.32414 -26.1028 0.165267 4.66144 29.923 0.000106811 180 30.5518 1.06333e-005 -6.15032 -111.355 -14.7974 178.18 -22.8657 5.09808e-006 -1.66484e-005 21.8911 -1.22751e-005 1.62045e-005 -11.004 -6.37703 -1.07078 77.836 -3.73407 37.2387 86.0276 0.0432436 0.00299205 79.5298 -2.0643 -30.7112 -101.451 -2.46831 -175.328 -65.1662 1.0736e-006 1.06336e-005 43.0443 1.03875e-005 -3.5619e-006 -6.85868 12.1673 0.387158 62.8624 19.0963 -32.5496 1.65945e-007 9.74869e-006 -4.96293e-009 64.4465 5.85028e-006 -7.93925e-006 9.23523 1.94028e-006 9.74931e-006 61.1647 -12.3939 28.0607 8.11027 8.54699e-006 1.85457e-006 7.94757 0.0162787 9.95507 -22.5328 -0.162715 -3.01921 -68.1809 -0.969139 1.14157 -33.6075 -0.337206 -0.301371 8.61389 -0.250257 2.60419 25.8419 -1.02118 -0.746841 44.3848 2.13813 -0.396408 -68.0547 0.000137329 -180
-3.07492 49.1344 0.492564 -91.3843 -85.5805 -0.137166 -89.5266 9.65862 -97.3614 -13.8803 -0.0409344 -179.111 65.2432 57.5076 -58.9156 -127.692 62.7193 132.566 11.0368 -0.479675 -5.37516 149.577 -19.6854 -14.1517 -173.936 -19.4925 -0.266406 151.713 -7.19703 -4.30364 26.0147 -0.225171 11.7623 -34.3474 -18.7057 164.558 165.575 19.3374 2.51709 -146.356 6.70139 -5.51053 -25.7008 0.198889 4.26776 29.7523 0.000106812 -180 30.1945 -1.11285e-005 -6.5509 -114.264 -14.4424 177.243 -28.1564 -6.27979e-006 7.98222e-006 23.5458 -2.28758e-005 -8.85766e-006 -9.20837 -6.51429 -1.01725 77.111 -3.7501 37.3112 85.2338 0.0569462 0.00473716 78.7807 -2.00943 -30.8123 -102.454 -2.45458 -175.746 -70.332 1.96935e-005 3.68677e-006 47.405 9.99882e-006 -4.42356e-006 -10.9735 11.8728 1.13734 57.0662 22.4237 -30.4927 1.65945e-007 9.74869e-006 -4.96294e-009 58.088 -9.90359e-006 -1.75369e-005 9.23523 1.86176e-006 9.75348e-006 55.3488 -15.3191 26.6663 8.11027 8.87534e-006 1.61135e-006 7.81025 0.101564 9.76435 -22.3037 -0.237847 -3.47222 -68.7942 -0.978253 1.05673 -33.0713 -0.365964 -0.41962 9.23516 -0.238059 2.4164 25.7496 -1.04091 -0.903615 43.5632 2.13521 -0.201924 -68.0855 0.000137329 -180
